<svg id="visual" viewBox="0 0 960 540" width="960" height="540" xmlns="http://www.w3.org/2000/svg" xmlns:xlink="http://www.w3.org/1999/xlink" version="1.1"><path d="M0 432L26.7 445.2C53.3 458.3 106.7 484.7 160 486.5C213.3 488.3 266.7 465.7 320 467.7C373.3 469.7 426.7 496.3 480 492C533.3 487.7 586.7 452.3 640 436.2C693.3 420 746.7 423 800 434.8C853.3 446.7 906.7 467.3 933.3 477.7L960 488L960 541L933.3 541C906.7 541 853.3 541 800 541C746.7 541 693.3 541 640 541C586.7 541 533.3 541 480 541C426.7 541 373.3 541 320 541C266.7 541 213.3 541 160 541C106.7 541 53.3 541 26.7 541L0 541Z" fill="#FFFFFF" stroke-linecap="round" stroke-linejoin="miter"></path></svg>